<?xml version="1.0" encoding="utf-8"?>
<!-- Generator: Adobe Illustrator 27.3.1, SVG Export Plug-In . SVG Version: 6.00 Build 0)  -->
<svg version="1.1" id="Layer_1" xmlns="http://www.w3.org/2000/svg" xmlns:xlink="http://www.w3.org/1999/xlink" x="0px" y="0px"
	 viewBox="0 0 60 50" style="enable-background:new 0 0 60 50; fill: #ffffff;" xml:space="preserve">
<path d="M38.9,19.2l5.1,0.4v5.2h-5.1V19.2z M44.4,19.6l3,5.2h-3V19.6z M5.1,27.2c-0.3,0.3-0.4,0.9-0.4,1.6c0.1,0.8,0.2,1.2,0.4,1.4
	c0.1,0.2,0.3,0.4,0.6,0.5c0.3,0.1,0.5,0.2,0.8,0.4l1.7,2.3l4,0c0-2.1,1.6-3.8,3.5-3.8c1.9,0,3.5,1.7,3.5,3.8c0,0,0,0,0,0.1l23.1,0.2
	c0.1-2,1.6-3.7,3.5-3.7c1.9,0,3.5,1.7,3.5,3.7l6.5,0.1v-1.8c-0.1-0.3-0.3-0.4-0.4-0.4c-0.2,0-0.3-0.1-0.5-0.4l-0.9-4.4l-5.8-1.8
	l-3.2-5.6l-5.9-0.7v-2l0-4.3h-33v14.4L5.1,27.2"/>
<path d="M45.8,30.4c-1.7,0-3.2,1.5-3.2,3.4c0,1.9,1.4,3.4,3.2,3.4c1.7,0,3.2-1.5,3.2-3.4C48.9,31.9,47.5,30.4,45.8,30.4"/>
<path d="M15.7,30c-1.7,0-3.2,1.5-3.2,3.4c0,1.9,1.4,3.4,3.2,3.4c1.7,0,3.2-1.5,3.2-3.4C18.8,31.5,17.4,30,15.7,30"/>
</svg>
